# xmcd CD database file
#
# Track frame offsets:
#	150
#	17839
#	33316
#	49003
#	65131
#	93440
#	109235
#	125978
#	140948
#	165455
#	183096
#	203959
#
# Disc length: 2973 seconds
#
# Submitted via: cddb-tool 0.4.1
#
#blues,classical,country,data,folk,jazz,newage,reggae,rock,soundtrack,misc
#CATEGORY=misc
# Revision: 0
# Processed by: cddbd v1.4PL0 Copyright (c) Steve Scherf et al.
#
DISCID=b20b9b0c
DTITLE=Harris And Ryden - Here To Jackson
DYEAR=1900
DGENRE=
TTITLE0=Texas Bound Again
TTITLE1=Wild Horses On The Ceiling
TTITLE2=Something To Smile About
TTITLE3=Peace Of The Gypsy
TTITLE4=El Soldado Viejo
TTITLE5=The Last Wyoming Cowboy
TTITLE6=The Real Ones
TTITLE7=Paycheck To Paycheck
TTITLE8=Girl From San Antonio
TTITLE9=Where The Outlaws Go
TTITLE10=For The Boys
TTITLE11=High On The Teton Range
EXTD=
EXTT0=
EXTT1=
EXTT2=
EXTT3=
EXTT4=
EXTT5=
EXTT6=
EXTT7=
EXTT8=
EXTT9=
EXTT10=
EXTT11=
PLAYORDER=
